<mxfile host="app.diagrams.net" modified="2023-05-27T11:40:12.186Z" agent="Mozilla/5.0 (Windows NT 10.0; Win64; x64) AppleWebKit/537.36 (KHTML, like Gecko) Chrome/113.0.0.0 Safari/537.36" etag="BX5mM1mEDZjDzpa3C871" version="21.3.4" type="github">
  <diagram id="C5RBs43oDa-KdzZeNtuy" name="Page-1">
    <mxGraphModel dx="1877" dy="581" grid="1" gridSize="10" guides="1" tooltips="1" connect="1" arrows="1" fold="1" page="1" pageScale="1" pageWidth="827" pageHeight="1169" math="0" shadow="0">
      <root>
        <mxCell id="WIyWlLk6GJQsqaUBKTNV-0" />
        <mxCell id="WIyWlLk6GJQsqaUBKTNV-1" parent="WIyWlLk6GJQsqaUBKTNV-0" />
        <mxCell id="X5NU6dxAT5ho14sx0l3U-3" value="1" style="ellipse;whiteSpace=wrap;html=1;aspect=fixed;strokeColor=#d79b00;fillColor=#ffe6cc;" parent="WIyWlLk6GJQsqaUBKTNV-1" vertex="1">
          <mxGeometry x="80" y="168.48" width="20" height="20" as="geometry" />
        </mxCell>
        <mxCell id="X5NU6dxAT5ho14sx0l3U-6" value="" style="shape=image;verticalLabelPosition=bottom;verticalAlign=top;imageAspect=0;aspect=fixed;image=data:image/svg+xml,PHN2ZyB4bWxuczp4bGluaz0iaHR0cDovL3d3dy53My5vcmcvMTk5OS94bGluayIgeG1sbnM9Imh0dHA6Ly93d3cudzMub3JnLzIwMDAvc3ZnIiB2aWV3Qm94PSIwIDAgODYwLjU1NDQ4IDYzMi4yNjcwNSIgaGVpZ2h0PSI2MzIuMjY3MDUiIHdpZHRoPSI4NjAuNTU0NDgiIGRhdGEtbmFtZT0iTGF5ZXIgMSI+PHBhdGggZmlsbD0iI2YyZjJmMiIgdHJhbnNmb3JtPSJ0cmFuc2xhdGUoLTE1OC4xMDU4NCAtMTMzLjMyNDk4KSIgZD0iTTI1OS40MTA5Myw3MzcuODgxNzJhMy42MTMyMywzLjYxMzIzLDAsMCwxLTIuNjE4NjUtNi4yNjI2MmMuMDkxMTEtLjM2MjEzLjE1NjQ3LS42MjIxNy4yNDc1OC0uOTg0M2E5LjcwNzQyLDkuNzA3NDIsMCwwLDAtMTcuOTk2ODYtLjE2OTczYy00LjI4MjI2LDEwLjAyMzQtOS44MjQ1MywyMC40LTcuMDY4MjYsMzEuNDQwMTEtMTguMjA2LTM4LjU4NTM4LTEyLjAxNDU4LTg2LjU4MiwxNC44OTEzOS0xMTkuNTc5NjcsNy40MzcxNC00LjA5Njg0LDEzLjQ2NTA4LTExLjM3NTU4LDE1LjAzNDM5LTE5LjgyNzE5LTMuNjgwNywxLjI0NzE0LTguMjY5ODQtMS43NDY3NS01LjUwMjM3LTUuNjIzODIsMS4xOTk1NS0xLjQ4MTc5LDIuNDEwNzUtMi45NTE5MiwzLjYxMDE5LTQuNDMzOC0xMy45ODE3MS0xNC44OTAzOC0zMC42NDA2OSw4LjUxMi0xNS4yNTA4NiwyOC42MDk0N0ExMTUuODQ2ODMsMTE1Ljg0NjgzLDAsMCwwLDIzMS43NDYxNCw2NjEuNDAyYTQ4LjcwOTI5LDQ4LjcwOTI5LDAsMCwwLTIuOTA4LTIyLjYyNDQ3Yy0yLjc4MzQ2LTYuNzE0NzktOC4wMDA2NC0xMi4zNy0xMi41OTUtMTguMTc0OTUtNS41ODYwOC03LjA3MzA4LTE3LjA4My0zLjgwOTkzLTE3LjgzNDcsNS4xNjU5Myw1LjE1NTI2LDEuNjk0NDMsNS44MjUsOS4xNDExNi0uMDcyLDEwLjE2MDM2LDEuNTQ0NTUsMTYuNjk3OTUsMTIuNDUzNDUsMzIuMDQzMjEsMjcuNDc4MjgsMzkuMzY2MzVhMTE2LjI5ODksMTE2LjI5ODksMCwwLDAtNi4zNTUzOSw0OC42MTE0Yy0yLjY1MjA3LTE5LjI1LTIzLjMxNTY5LTIzLjkyMTQ3LTM3Ljc1ODU5LTMxLjU3MjQ3YTUuNjI2LDUuNjI2LDAsMCwwLTguNTgwMTEsNS42OTg1MSwzMi40OTQ4MSwzMi40OTQ4MSwwLDAsMSw1LjY5NTg0LDMuMDA0ODgsNC45MTEyMyw0LjkxMTIzLDAsMCwxLTIuMjgxNjIsOC45NjU0NmM3LjI4MDE0LDE4LjAxODA1LDI2LjEwMjI3LDMwLjExNzI4LDQ1LjQzMzcxLDMwLjA0OTE2YTExOS41NjI3OCwxMTkuNTYyNzgsMCwwLDAsOC4wMzE2NywyMy40NDdIMjU4LjY5MmMuMTAyOTEtLjMxODguMTk1NDItLjY0NzkyLjI4OC0uOTY2NzJhMzIuNTk4NzUsMzIuNTk4NzUsMCwwLDEtNy45MzkxNi0uNDczYzcuMDI2MzctOC4zMTkwOCwxMi40NjAzMS0xMi41NjMzNiw4LjM3MS0yNC4xNzcyMVoiLz48cG9seWdvbiBmaWxsPSIjZmZiNmI2IiBwb2ludHM9IjI1My4zOTcgNjA3Ljg0IDI2NS4yMjggNjA3Ljg0IDI3MC44NTYgNTYyLjIwOSAyNTMuMzk1IDU2Mi4yMSAyNTMuMzk3IDYwNy44NCIvPjxwYXRoIGZpbGw9IiMyZjJlNDEiIHRyYW5zZm9ybT0idHJhbnNsYXRlKC0xNTguMTA1ODQgLTEzMy4zMjQ5OCkiIGQ9Ik00MjcuMjcsNzQyLjIzdi04LjAybC0zLjExMDA1LjE5LTEyLjY2Ljc1LTIuOTMuMTgtMi4yNCwyNi44Ni0uMTIsMS40NGg4LjRsLjI3LTEuNDMsMS4yMi02LjUsMy4xNSw2LjUuNjksMS40M2gyMi4yN2E1LjAzMTkxLDUuMDMxOTEsMCwwLDAsNS01LjAxQzQ0OC4xNSw3NTQuMjMsNDI5LjYzLDc0NC43NCw0MjcuMjcsNzQyLjIzWiIvPjxwb2x5Z29uIGZpbGw9IiNmZmI2YjYiIHBvaW50cz0iMTE0LjgwMiA1OTQuOTYzIDEyNS4wOTEgNjAwLjgwMSAxNTIuNTA1IDU2My44OTEgMTM3LjMxOCA1NTUuMjc1IDExNC44MDIgNTk0Ljk2MyIvPjxwYXRoIGZpbGw9IiMyZjJlNDEiIHRyYW5zZm9ybT0idHJhbnNsYXRlKC0xNTguMTA1ODQgLTEzMy4zMjQ5OCkiIGQ9Ik0yODYuMSw3MzYuOTlsMy45NS02Ljk3LTIuNzgtMS4zNy0xMS4zOS01LjU5LTIuNjQtMS4zLTEyLjk3LDE4Ljk5LTMuMDUsNC40NiwzLjQ1LDEuOTYsMy44NSwyLjE5LDUuMjItNi4xNi0uNTgsOC43OSwxOC4xOSwxMC4zM2guMDFsMS4xNy42NmE1LjAwODE5LDUuMDA4MTksMCwwLDAsNi44Mi0xLjg5QzI5OC4zMyw3NTcuNzMsMjg2LjkxLDc0MC4zNSwyODYuMSw3MzYuOTlaIi8+PHBhdGggZmlsbD0iI2ZmYjZiNiIgdHJhbnNmb3JtPSJ0cmFuc2xhdGUoLTE1OC4xMDU4NCAtMTMzLjMyNDk4KSIgZD0iTTQ1NS4yMzE1MywzNjIuNzIzMTJhMTAuNTQ4NjksMTAuNTQ4NjksMCwwLDAtOC40NDQ2NCwxMy42NjY5NWwtMTguMTAyOCwxNS42Njg3NSw2LjgzODczLDEzLjMyMzM4LDI1LjI1Mzg4LTIyLjQ4NjM2YTEwLjUzMzksMTAuNTMzOSwwLDAsMC01LjU0NTE3LTIwLjE3MjcyWiIvPjxwYXRoIGZpbGw9IiMyZjJlNDEiIHRyYW5zZm9ybT0idHJhbnNsYXRlKC0xNTguMTA1ODQgLTEzMy4zMjQ5OCkiIGQ9Ik00MzYuMTcsNDA0LjhsLTYuOC0xMy4zMy0uNy0xLjM3Yy03LjI4LDIuNTYtMjEuNTc5OTUsMTAuOTItMjguMSwxNS4xOS0yLjM5LTMuMzMtMTUuNjgtMTcuODItMjcuMTctMjMuMzgsMC0uMDEtLjAxLDAtLjAxLDBxLTEuMTg1LS41Ny0yLjM0LTEuMDJhMTYuMTYxNDksMTYuMTYxNDksMCwwLDAtNS41OS0xLjE2LDguNjA2MDcsOC42MDYwNywwLDAsMC0yLjUxLjM2LDcuMDU3MSw3LjA1NzEsMCwwLDAtMi4zNiwxLjIxYy0xLjg3MDA2LDEuNDQtMy4yOSwzLjk1LTQuMDksNy44M2ExNS4zMTI5NCwxNS4zMTI5NCwwLDAsMCwuNzEsNS40NGMzLjIsMTAuNjEsMTUuODQsMjIuNDYsMjAuMzEsMzAuMS40NCwxLjE4LDQuODMsMTIuOCwxMS43NiwxNi45MmExMS4xNzI1MiwxMS4xNzI1MiwwLDAsMCwxLjEyOTk0LjZjLjQzMDA2LjA2Ljg2MDA1LjExLDEuMzEuMTNoLjAxYTE4LjQwMDc3LDE4LjQwMDc3LDAsMCwwLDIuMTEwMDUuMDNjLjM2LS4wMS43My0uMDQsMS4xLS4wNy4wOC0uMDEuMTUtLjAxLjIzLS4wMmEzMy4zNDE2LDMzLjM0MTYsMCwwLDAsNi43OS0xLjQ4Yy4yNS0uMDguNS0uMTYuNzUtLjI1YTU1Ljg2OSw1NS44NjksMCwwLDAsNS41Ny0yLjI0YzEuMDUtLjQ4LDIuMDktMSwzLjEyOTk0LTEuNTQsMS4yNi0uNjYsMi41Mi0xLjM2LDMuNzUtMi4wOSwxLjA2LS42MSwyLjEtMS4yNSwzLjEyMDA2LTEuOTF2LS4wMWMuMjQtLjE0LjQ4LS4zLjcyLS40N2guMDFjOS4xMi01LjkzLDE2LjU2LTEyLjgyLDE3Ljk5LTE1LjY3YTIzLjE1NDU2LDIzLjE1NDU2LDAsMCwwLDIuNTgtNS4xMVoiLz48cGF0aCBmaWxsPSIjMmYyZTQxIiB0cmFuc2Zvcm09InRyYW5zbGF0ZSgtMTU4LjEwNTg0IC0xMzMuMzI0OTgpIiBkPSJNMzk0Ljc4MTYsNDUxLjY5MzI0czI1LjA3MDU1LDI4LjIwODI2LDE4Ljc2ODY5LDM0LjUxMDEyUzM5Ny40NDE5LDQ5NC4xNiwzOTcuNDQxOSw0OTQuMTZsLTExLjk4OS0uOTI0MTFaIi8+PHBhdGggZmlsbD0iIzJmMmU0MSIgdHJhbnNmb3JtPSJ0cmFuc2xhdGUoLTE1OC4xMDU4NCAtMTMzLjMyNDk4KSIgZD0iTTM2NC4wMjY1MiwzNzYuMDIxMjRjMzIuMzM1MzYsMTguOTE4NzUsNDMuMjA4MzUsMzYuOTkyMSwyOC4yNTQxOSw3My4zNjFaIi8+PHBhdGggZmlsbD0iIzJmMmU0MSIgdHJhbnNmb3JtPSJ0cmFuc2xhdGUoLTE1OC4xMDU4NCAtMTMzLjMyNDk4KSIgZD0iTTMzNS4wMzc5NCw1MjcuMjY2Yy0yLjYyMzI4LTEuMjIwMy05LjEzOTQ3LDk3LjIxODY3LTkuNjcwNzQsOTkuNjkyMTdMMjg4LjAwMTg2LDY5Ni41OTQsMzQxLjE4Niw3MjAuNDM0MjhsMzQuOTY5NTQtMTIxLjQyMiw1LjgyODI2LDQ0LjY4MzMtNy43NzEsNzAuOTEwNDUsMzQuMzc3MzgsOC4zMTM1OCwyMy43NzgtMS42OTg0My0xNi41MTQtMjAxLjg2Nzg0LTMxLjMzNjg0LTU2LjgyMDg5WiIvPjxwYXRoIGZpbGw9IiNmNmM3YWMiIHRyYW5zZm9ybT0idHJhbnNsYXRlKC0xNTguMTA1ODQgLTEzMy4zMjQ5OCkiIGQ9Ik0zNjEuMjM4NDQsMzc4LjgwOTk0YzQzLjkwNTcxLDMyLjY4ODQ0LDMzLjE4NDkzLDMzLjI3MDQ5LDMzLjU0MjQ1LDgzLjcyMzM0bDIwLjkyMDkyLDU1LjkxMDFzLTczLjc1MzE3LDI4LjU2NC04MS4zMTU0MSw5LjY1ODQ1UzM2MS4yMzg0NCwzNzguODA5OTQsMzYxLjIzODQ0LDM3OC44MDk5NFoiLz48cGF0aCBmaWxsPSIjMmYyZTQxIiB0cmFuc2Zvcm09InRyYW5zbGF0ZSgtMTU4LjEwNTg0IC0xMzMuMzI0OTgpIiBkPSJNMzk1LjM1LDQ0Ny4xNmMtLjA5LS4zMi0uMi0uNjktLjMyLTEuMDh2LS4wMWMtLjE5LS42My0uNDEtMS4zMi0uNjctMi4xMTAwNS0uMTYtLjUtLjMzLTEuMDQtLjUyLTEuNjEtLjEyMDA2LS4zNi0uMjQtLjczLS4zNzAwNi0xLjEyLTMuNTItMTAuNjMtMTAuNjItMzAuNDUtMTkuMjQtNTIuMzZ2LS4wMXEtMS41Ni0zLjk0NS0zLjE4LTcuOTdjLS4xLS4yNC0uMTktLjQ5LS4yOS0uNzMtLjQzLTEuMDctLjg3LTIuMTUtMS4zMS0zLjIzTDM1Ni44MiwzNjQuM2wtNi44MS00LjQ0LTE1LDEzLjg1cy4wMS4yNC4wMy43MWMuMjEsNC4yNywxLjI0LDI3LjMzLDEuMzcsNTQuNTkuMDMsNi44Ny4wMSwxNC4wMS0uMTEsMjEuMTh2LjE5Yy0uMDMsMS44OCwwLDMuMzQuMDksNC41MmExOS42OTM4MiwxOS42OTM4MiwwLDAsMCwuMjksMi41Yy41NiwzLjA4LDEuNTksMy44LDIuMTQsMTAuMjEsMCwwLTExLjgsMTUuMjEtNC45NSwyOC4yM2E5LjM4ODcyLDkuMzg4NzIsMCwwLDAsMS42NC4xYzIuNDIuMDQsOC4wNi0uMTEsMjMuNTctLjEyLDIuNjktLjAyLDUuNjctLjAyLDguOTgtLjAxLDIxLjY5LDAsMTAtMTIuNTUsMjEuNTktMjMuOTguMjUtLjI1LjUtLjQ5Ljc3LS43M2EyNi4yNTAyMiwyNi4yNTAyMiwwLDAsMSwyLjYtMi4wN2wxLjk0LTYuMDIuNjItMS45My4wMS0uMjUuMDYtMi42Ny4xMy01LjMyLjA5LTMuNTRBMTMuMTQ1NTksMTMuMTQ1NTksMCwwLDAsMzk1LjM1LDQ0Ny4xNloiLz48cG9seWdvbiBvcGFjaXR5PSIwLjIiIHBvaW50cz0iMTgzLjI1OSAyNzQuMTcxIDE3OS44MTQgMjk1LjY3MSAyMDMuMTMzIDMwNS4yODkgMTgzLjI1OSAyNzQuMTcxIi8+PHBhdGggZmlsbD0iI2ZmYjZiNiIgdHJhbnNmb3JtPSJ0cmFuc2xhdGUoLTE1OC4xMDU4NCAtMTMzLjMyNDk4KSIgZD0iTTM3NS44MDU2OSwzMTIuOTY4MDZjMjYuMDg2NTYsMTQuODQ0Myw0LjY3MDc5LDU0LjAxMS0yMS45MDIwNyw0MC4wNjRDMzI3LjgxNzg5LDMzOC4xODgzLDM0OS4yMzM2NiwyOTkuMDIxNjQsMzc1LjgwNTY5LDMxMi45NjgwNloiLz48cGF0aCBvcGFjaXR5PSIwLjIiIHRyYW5zZm9ybT0idHJhbnNsYXRlKC0xNTguMTA1ODQgLTEzMy4zMjQ5OCkiIGQ9Ik0zMjYuNjAxMzYsNDQ4LjgzN2MxMy44MzI1OSwxNi4zMDE2NSwzNy40MDUxNSwxOC42NTUzNiw1NS4zMDc2LDcuNzE1NzFaIi8+PHBhdGggZmlsbD0iIzJmMmU0MSIgdHJhbnNmb3JtPSJ0cmFuc2xhdGUoLTE1OC4xMDU4NCAtMTMzLjMyNDk4KSIgZD0iTTM4OS43NTQ4MywzMjEuMTk4NzVjLTEuODI3ODQsMi4zNzczMy01LjY0NjY3LDEuMjYyNjItMTMuMTI1MTcsMi45NTlhMzEuMTc1ODEsMzEuMTc1ODEsMCwwLDAtLjg3MjA3LTcuNTI2MjYsMjEuMTg1NDgsMjEuMTg1NDgsMCwwLDEtMy41NzIwOSw4LjQ3MDFjLTYuNDkzNzUuNzIwMTksMS40NjY3MSwyMC40NDc4Mi0xLjg1ODE5LDM0Ljk1MjItNC4yODM5NC0zMC41OTk1OC0xMy4yOTQzOS0yMi41ODI3NS04Ljc0MjM4LTE2LjUxMzM5LDIuOTE0MTMsMy44ODU1Ljk3MTM4LDE1LjU0Mi03Ljc3MSw5LjcxMzc2LTE0LjQyNDU4LDYuODU1MzktMzQuOTY5NTMtMjcuMTk4NTMtMTIuMTk5MzgtNDMuMTY5MzItLjQwNjg3LTguNjMyNjQsOS4xOTg1Ni05Ljk5NjM2LDE1LjExMzUxLTcuMzQyMjRDMzcxLjA4Mjc5LDI5Mi4wNDkyMiwzODcuNDgyOTIsMzA1Ljc1MTA3LDM4OS43NTQ4MywzMjEuMTk4NzVaIi8+PHBhdGggZmlsbD0iIzNmM2Q1NiIgdHJhbnNmb3JtPSJ0cmFuc2xhdGUoLTE1OC4xMDU4NCAtMTMzLjMyNDk4KSIgZD0iTTQwNC40ODcxLDQzMi42MzIzNGM3LjQxNDI5LS4xNDc2OSw0Ny4yMzk3NS0xLjI5MDc1LDUzLjc3MDU0LTEuMDA5NjUuMzY5NDMtMS4yOTMzLDEyLjc0OTg1LDE0LjU3MjU1LDEzLjA1MDkzLDE0LjY3MDg5YTEuODA4MzQsMS44MDgzNCwwLDAsMS0uNjA0ODEsMi45MDc1OWMtLjcyNzc3LjQ0MjEzLTY0LjkzMTY2LS43NDU2MS02NS43MDk1Ni0uNTkwNjRhMS43ODU5LDEuNzg1OSwwLDAsMS0xLjU5Mzc4LTEuMDM4MzNsLS40MjkxNC0uOTYxMTVjLS4wNDQ1OC0xLjY0NDMyLS41ODI5MS0xMC4wNDgtLjA5OTY1LTExLjQ4NDg0QTEuNzc4MTUsMS43NzgxNSwwLDAsMSw0MDQuNDg3MSw0MzIuNjMyMzRaIi8+PHBhdGggc3R5bGU9Imlzb2xhdGlvbjppc29sYXRlIiBvcGFjaXR5PSIwLjE3IiB0cmFuc2Zvcm09InRyYW5zbGF0ZSgtMTU4LjEwNTg0IC0xMzMuMzI0OTgpIiBkPSJNNDAyLjk3MTM4LDQ0Ni42MDk1M2MuMzc2ODEuOTA1NDkuODU4ODIsMi4wNDMxNSwyLjAyMjkxLDIuMDAxMzhsNjUuMDMxNTkuNzI5OGExLjc5MzksMS43OTM5LDAsMCwwLDEuNTY1MjctMi42MzMwOFoiLz48cGF0aCBmaWxsPSIjM2YzZDU2IiB0cmFuc2Zvcm09InRyYW5zbGF0ZSgtMTU4LjEwNTg0IC0xMzMuMzI0OTgpIiBkPSJNNDU3Ljk1Mzc5LDQzMS40MjhjLjctMS4yMTA1MiwxOC4wODYxNi04Ny4yMzgzLDE5LjUzNzI3LTg3Ljk1NzY5bDExLjg3MDMyLTE0LjUyMTA1LDEuMDYwOTQtLjc5Nzc5YzEuNDc1MzUtLjgxMDQ1LDUuMDE0MzUtLjI2MjQ3LDQuNjk1NjQsMS45OTA4N2gwYy0yLjc4ODcsMTMuMzcwMDctMjAuNzI1Niw4OS41MTg0OC0yMS4xMTg2NywxMDEuMzkwMzlMNDcxLjg0MDE1LDQ0Ni42NTdhMS44NjI1MiwxLjg2MjUyLDAsMCwxLTIuMjk5NjYsMS41Mjk4MywzLjU4MjY1LDMuNTgyNjUsMCwwLDEtMi44NzczOS0yLjA3OTExQzQ2Ni41MDEyNCw0NDUuNTc0LDQ1Ny4xNDEsNDMxLjczNzg3LDQ1Ny45NTM3OSw0MzEuNDI4WiIvPjxwYXRoIHN0eWxlPSJpc29sYXRpb246aXNvbGF0ZSIgb3BhY2l0eT0iMC4xNyIgdHJhbnNmb3JtPSJ0cmFuc2xhdGUoLTE1OC4xMDU4NCAtMTMzLjMyNDk4KSIgZD0iTTQ4OS4zNjQyNSwzMjguOTQ5ODYsNDY2LjY2MDg3LDQ0Ni4xMTA3OGMuNzU5MjUsMS45MjE3Myw0LjMxMiwzLjI2ODA1LDUuMTM5NDcuNzQ3MTguMDE0NDYtLjAwMzQ3LDIzLjI5MTE1LTExNi42NDM1MSwyMy4zMTQ4Mi0xMTYuNzEzMjRDNDk1LjM2MzE2LDMyNy4zMzc1OSw0OTAuNzI0NjksMzI3LjI0ODU1LDQ4OS4zNjQyNSwzMjguOTQ5ODZaIi8+PHBvbHlnb24gZmlsbD0iI2Y2YzdhYyIgcG9pbnRzPSIzMzAuNTc0IDIwMC40MTYgMzE5LjA0NCAyMTYuNDg3IDMwNi4xMDIgMjc3Ljk1MyAzMTIuMTE4IDI4My4yMDEgMzMwLjU3NCAyMDAuNDE2Ii8+PHBhdGggZmlsbD0iIzJmMmU0MSIgdHJhbnNmb3JtPSJ0cmFuc2xhdGUoLTE1OC4xMDU4NCAtMTMzLjMyNDk4KSIgZD0iTTQxMS40MSw0MzYuNzVjLS4yNC0xLjg2LS43LTMuNTctMi4wNS0zLjQ0LTEuOTktLjAxLTEuNTYsMi43LTEuMDgsNC45OGExMi41Mzg4MiwxMi41Mzg4MiwwLDAsMSwuNDYsMi43NmwzLjE5LS4xM0EyNi4zMTg5MSwyNi4zMTg5MSwwLDAsMSw0MTEuNDEsNDM2Ljc1WiIvPjxwYXRoIGZpbGw9IiMyZjJlNDEiIHRyYW5zZm9ybT0idHJhbnNsYXRlKC0xNTguMTA1ODQgLTEzMy4zMjQ5OCkiIGQ9Ik00MzAuMjEsNDM2LjMxYy0uMDItLjUzLjAxLTEuMjEtLjA2LTEuODUtLjExLTEuMDYtLjQ3LTEuOTgtMS42OC0xLjkxYTEuNjAwMzIsMS42MDAzMiwwLDAsMC0uNjUuMTNjLTEuMjkuNTgtLjc2LDIuOTMtLjc4LDQuMDdsMS4wNC0uMDQsMi4xNS0uMDhDNDMwLjIyLDQzNi41Myw0MzAuMjEsNDM2LjQyLDQzMC4yMSw0MzYuMzFaIi8+PHBhdGggZmlsbD0iIzJmMmU0MSIgdHJhbnNmb3JtPSJ0cmFuc2xhdGUoLTE1OC4xMDU4NCAtMTMzLjMyNDk4KSIgZD0iTTQzNi41OCw0MzYuMDVjLS4wNS0xLjQuMi0zLjg3LTEuNzQtMy43Ni0yLjEuMDQtMS40MSwyLjktMS40MzAwNiw0LjIxbDEuMDMtLjA0LDIuMTYtLjA5QzQzNi41OSw0MzYuMjcsNDM2LjU4LDQzNi4xNiw0MzYuNTgsNDM2LjA1WiIvPjxwYXRoIGZpbGw9IiMyZjJlNDEiIHRyYW5zZm9ybT0idHJhbnNsYXRlKC0xNTguMTA1ODQgLTEzMy4zMjQ5OCkiIGQ9Ik00NDIuOTUsNDM1LjhjLS4wNS0xLjQxLjItMy44OC0xLjc0LTMuNzYtMi4xLjA0LTEuNDEsMi45LTEuNDMsNC4ybDEuMDQtLjA0LDIuMTUtLjA4QzQ0Mi45Niw0MzYuMDIsNDQyLjk1LDQzNS45MSw0NDIuOTUsNDM1LjhaIi8+PHBhdGggZmlsbD0iIzJmMmU0MSIgdHJhbnNmb3JtPSJ0cmFuc2xhdGUoLTE1OC4xMDU4NCAtMTMzLjMyNDk4KSIgZD0iTTQ0OS4zMiw0MzUuNTRjLS4wNS0xLjQuMi0zLjg3LTEuNzQtMy43Ni0yLjEuMDUtMS40MSwyLjktMS40Myw0LjIxbDEuMDMtLjA0LDIuMTYtLjA5QzQ0OS4zMyw0MzUuNzYsNDQ5LjMyLDQzNS42NSw0NDkuMzIsNDM1LjU0WiIvPjxwYXRoIGZpbGw9IiMyZjJlNDEiIHRyYW5zZm9ybT0idHJhbnNsYXRlKC0xNTguMTA1ODQgLTEzMy4zMjQ5OCkiIGQ9Ik00NTUuNjksNDM1LjI5Yy0uMDQtMS4yNi4xNS0zLjM2LTEuMTktMy43MWgtLjAxYTEuNTA1NjYsMS41MDU2NiwwLDAsMC0uNTQtLjA1LDEuNDYzODcsMS40NjM4NywwLDAsMC0uNDQuMDZoLS4wMWMtMS41NC40My0uOTYsMi45NC0uOTgsNC4xNGwxLjA0LS4wNCwyLjE1LS4wOEM0NTUuNyw0MzUuNTEsNDU1LjY5LDQzNS40LDQ1NS42OSw0MzUuMjlaIi8+PHBhdGggZmlsbD0iIzJmMmU0MSIgdHJhbnNmb3JtPSJ0cmFuc2xhdGUoLTE1OC4xMDU4NCAtMTMzLjMyNDk4KSIgZD0iTTQxOC4yOCw0MzIuNzV2LS4wMWEzLjExNDc4LDMuMTE0NzgsMCwwLDAtLjA4LS40NGMtLjE2LS44NS0uNTctMS41MS0xLjYtMS40NS0xLjAxLjAyLTEuMzcuNjgtMS40OCwxLjUyYTEzLjMzMDMsMTMuMzMwMywwLDAsMCwuMDQsMi4yOWMuMDEuMTUuMDEuMjguMDEuNGwzLjE5LS4xM0M0MTguMzEsNDM0LjM3LDQxOC4zNiw0MzMuNTMsNDE4LjI4LDQzMi43NVoiLz48cGF0aCBmaWxsPSIjMmYyZTQxIiB0cmFuc2Zvcm09InRyYW5zbGF0ZSgtMTU4LjEwNTg0IC0xMzMuMzI0OTgpIiBkPSJNNDI0LjYsNDMyLjE0Yy0uMTYtLjg5LS41Ny0xLjYxLTEuNjMtMS41NC0xLjA1LjAyLTEuNC43NC0xLjQ5LDEuNjJhMjMuMjc4MDYsMjMuMjc4MDYsMCwwLDAsLjA2LDIuNThsMy4xOS0uMTNDNDI0LjY3LDQzNC4wMyw0MjQuNzUsNDMzLDQyNC42LDQzMi4xNFoiLz48cGF0aCBmaWxsPSIjMmYyZTQxIiB0cmFuc2Zvcm09InRyYW5zbGF0ZSgtMTU4LjEwNTg0IC0xMzMuMzI0OTgpIiBkPSJNNDMwLjk4LDQzMS45OWMtLjEzOTk1LS45NC0uNTMtMS43MS0xLjYzOTk1LTEuNjUtMS4wOS4wMi0xLjQyMDA1Ljc5LTEuNSwxLjcyYTQuMjMzMDYsNC4yMzMwNiwwLDAsMC0uMDIuNjJjLjAxLjY5LjEsMS4zOS4wOSwxLjg3bDIuMjQtLjA5Ljk1LS4wNEM0MzEuMDQsNDMzLjgsNDMxLjEyLDQzMi44Myw0MzAuOTgsNDMxLjk5WiIvPjxwYXRoIGZpbGw9IiMyZjJlNDEiIHRyYW5zZm9ybT0idHJhbnNsYXRlKC0xNTguMTA1ODQgLTEzMy4zMjQ5OCkiIGQ9Ik00MTYuNTQsNDM2LjU5Yy0yLjEuMDQtMS40MiwyLjktMS40Myw0LjJsMy4xOS0uMTJDNDE4LjE4LDQzOS4zNiw0MTguNjQsNDM2LjQ2LDQxNi41NCw0MzYuNTlaIi8+PHBhdGggZmlsbD0iIzJmMmU0MSIgdHJhbnNmb3JtPSJ0cmFuc2xhdGUoLTE1OC4xMDU4NCAtMTMzLjMyNDk4KSIgZD0iTTQyMi45MSw0MzYuMzNjLTIuMS4wNC0xLjQyLDIuOS0xLjQzLDQuMjFsMy4xOS0uMTNDNDI0LjU1LDQzOS4xMSw0MjUuMDEsNDM2LjIxLDQyMi45MSw0MzYuMzNaIi8+PHBhdGggZmlsbD0iIzJmMmU0MSIgdHJhbnNmb3JtPSJ0cmFuc2xhdGUoLTE1OC4xMDU4NCAtMTMzLjMyNDk4KSIgZD0iTTQzMC4yMSw0MzYuMzFhMS40MDU0NSwxLjQwNTQ1LDAsMCwwLS45My0uMjMsMS4zMTk1OCwxLjMxOTU4LDAsMCwwLTEuMi42M2MtLjU3LjkyLS4yMiwyLjY0LS4yMywzLjU3bDMuMTktLjEyQzQzMC45NCw0MzkuMSw0MzEuMjMsNDM2Ljk4LDQzMC4yMSw0MzYuMzFaIi8+PHBhdGggZmlsbD0iIzJmMmU0MSIgdHJhbnNmb3JtPSJ0cmFuc2xhdGUoLTE1OC4xMDU4NCAtMTMzLjMyNDk4KSIgZD0iTTQzNi41OCw0MzYuMDVhMS4zODkzLDEuMzg5MywwLDAsMC0uOTMtLjIzLDEuMzIzNDQsMS4zMjM0NCwwLDAsMC0xLjIxLjYzOTk1Yy0uNTUuOTMtLjIxLDIuNjQtLjIyLDMuNTdsMy4xOS0uMTNDNDM3LjMxLDQzOC44NSw0MzcuNiw0MzYuNzQsNDM2LjU4LDQzNi4wNVoiLz48cGF0aCBmaWxsPSIjMmYyZTQxIiB0cmFuc2Zvcm09InRyYW5zbGF0ZSgtMTU4LjEwNTg0IC0xMzMuMzI0OTgpIiBkPSJNNDQyLjk1LDQzNS44YTEuNDA1MSwxLjQwNTEsMCwwLDAtLjkzLS4yMywxLjMxOTM0LDEuMzE5MzQsMCwwLDAtMS4yLjYzYy0uNTcuOTItLjIyLDIuNjQtLjIzLDMuNTdsMy4xOS0uMTJDNDQzLjY4LDQzOC41OSw0NDMuOTcsNDM2LjQ3LDQ0Mi45NSw0MzUuOFoiLz48cGF0aCBmaWxsPSIjMmYyZTQxIiB0cmFuc2Zvcm09InRyYW5zbGF0ZSgtMTU4LjEwNTg0IC0xMzMuMzI0OTgpIiBkPSJNNDQ5LjMyLDQzNS41NGExLjM4OTI2LDEuMzg5MjYsMCwwLDAtLjkzLS4yMywxLjMxMjQxLDEuMzEyNDEsMCwwLDAtMS4yMS42NGMtLjU1LjkzLS4yMSwyLjY0LS4yMiwzLjU3bDMuMTktLjEzQzQ1MC4wNSw0MzguMzQsNDUwLjM0LDQzNi4yMyw0NDkuMzIsNDM1LjU0WiIvPjxwYXRoIGZpbGw9IiMyZjJlNDEiIHRyYW5zZm9ybT0idHJhbnNsYXRlKC0xNTguMTA1ODQgLTEzMy4zMjQ5OCkiIGQ9Ik00NTUuNjksNDM1LjI5YTEuNDA1LDEuNDA1LDAsMCwwLS45My0uMjMsMS4zMDgyMSwxLjMwODIxLDAsMCwwLTEuMi42M2MtLjU2LjkzLS4yMiwyLjY0LS4yMywzLjU3bDMuMTktLjEyQzQ1Ni40Miw0MzguMDgsNDU2LjcxLDQzNS45Nyw0NTUuNjksNDM1LjI5WiIvPjxwYXRoIGZpbGw9IiMyZjJlNDEiIHRyYW5zZm9ybT0idHJhbnNsYXRlKC0xNTguMTA1ODQgLTEzMy4zMjQ5OCkiIGQ9Ik0zMjIuODIyNTIsMjk4Ljg3MDY2Yy01LjgwNzgsMzUuNzA4NS0zNi45MzczMy02LjU2NzE1LTUxLjU3NDI1LDI4LjU3MzU5LTQuNjAyLDEyLjcyNiwzLjI5Mzg4LDIxLjgyOTYyLDguMjg4MzksMzIuMzkyNjksMS4xMzk5LDguNjgwOTQtMTAuMTUzMjgsMTMuMDg1Mi0xMS4zMzYxOCwyMS4wNzYtLjMyOTIzLDE4LjMxOTY3LDI5LjIyNjI4LDE3LjE5ODYzLDM3LjQ4ODc2LDUuNjQwNTYsOC40ODk3MS0xMi4wOTkzMS0xLjY0ODIyLTI4LjMzMjUyLDMuNDU0NzItNDEuMzE5NTEsNy4xNzIxNi0xOC4wMzA2MiwzNi4zMzk4My0xOC4xNjQ1NywzOC44ODA4NC0zOS4xNDE2M0MzNDMuMTAzNjcsMjk5LjA4NDQ1LDMyOS44NzA4OCwyOTEuMDU4MjIsMzIyLjgyMjUyLDI5OC44NzA2NloiLz48cGF0aCBmaWxsPSIjY2NjIiB0cmFuc2Zvcm09InRyYW5zbGF0ZSgtMTU4LjEwNTg0IC0xMzMuMzI0OTgpIiBkPSJNNTk3Ljc3NDg2LDc2My44ODY4NGMtLjc2NzM0LDIuMjcyNzEtNDM4Ljg0MTE1LDIuMjcyNjMtNDM5LjY2OS4wMDU1MUMxNTguODcyMTgsNzYxLjYxNDE0LDU5Ni45NDU5Myw3NjEuNjE0Miw1OTcuNzc0ODYsNzYzLjg4Njg0WiIvPjxwYXRoIGZpbGw9IiMyZjJlNDEiIHRyYW5zZm9ybT0idHJhbnNsYXRlKC0xNTguMTA1ODQgLTEzMy4zMjQ5OCkiIGQ9Ik0zNDYuMzUsMzAyLjM2Yy0uMTkuMDgtLjM4LjE2LS41NS4yNWgtLjAxYy0uMTYuMDgtLjMyLjE2LS40OC4yNS0uMDIuMDEtLjAzLjAyLS4wNS4wMy0uMjEtLjItLjQyLS40LS42NC0uNmEyLjMxMjcsMi4zMTI3LDAsMCwwLC4wNC45OGwuMDMuMTJjLjIuMjEuNDEuNDEuNjMuNjIuMi0uMTUuMzktLjMxLjU5LS40Ni4xMjAwNi0uMS4yNC0uMi4zNzAwNi0uMy4wMi0uMjYuMDUtLjU2LjA4LS44OVptNi4wMi0xMS4xMmMtNC40Ni0xLjAyLTUuOSw0LjgxLTYuMzMsNy42Mi0xLjYyLTEwLjItOC4zNi02Ljk5LTYuMDMtLjAzYTE1LjU4MzEsMTUuNTgzMSwwLDAsMCwzLjQzLDUuNTJjLjIxLjI0LjQ0LjQ4LjY4LjcyLS4yNywxLjQsMS4wOSwxLjA0LDIuOTMtLjI1YTI0LjUwODIyLDI0LjUwODIyLDAsMCwwLDMuNzUtMy4yOUMzNTQuNDcsMjk3LjY4LDM1Ny4zMywyOTIuNTMsMzUyLjM3LDI5MS4yNFptLjE0LDUuNzRhMzQuOTQ2LDM0Ljk0NiwwLDAsMS00LjYxLDQuODlxLS43OTUuNzItMS42MiwxLjM4Yy0uMDEuMDktLjAxLjE3LS4wMi4yNGExLjgzMTc5LDEuODMxNzksMCwwLDEtLjE0LjI4Yy0uNTYsMS4wMS0xLjE5LjQ2LTEuNDMtLjM4LS4wMi0uMDMtLjA1LS4wNi0uMDctLjA5YTE0LjA5MDQzLDE0LjA5MDQzLDAsMCwxLTIuMDctMi43NGMtNC4xMy03LjE2LDIuNTItMTIuMDMsMi4xOSwxLjM0YTEuMjY2MzksMS4yNjYzOSwwLDAsMC0uMTIuMzksMi4zMTI3LDIuMzEyNywwLDAsMCwuMDQuOThsLjAzLjEyYy4yLjIxLjQxLjQxLjYzLjYyLjItLjE1LjM5LS4zMS41OS0uNDYuMTIwMDYtLjEuMjQtLjIuMzcwMDYtLjMuMDItLjI2LjA1LS41Ni4wOC0uODl2LS4wMWMuMjYtMi42OC45Ny03LjUsMi4yOC04LjgxQzM1MS41MiwyOTEuMzMsMzU1LjI1LDI5My43MiwzNTIuNTEsMjk2Ljk4Wm0tNi4xNiw1LjM4Yy0uMTkuMDgtLjM4LjE2LS41NS4yNWgtLjAxYy0uMTYuMDgtLjMyLjE2LS40OC4yNS0uMDIuMDEtLjAzLjAyLS4wNS4wMy0uMjEtLjItLjQyLS40LS42NC0uNmEyLjMxMjcsMi4zMTI3LDAsMCwwLC4wNC45OGwuMDMuMTJjLjIuMjEuNDEuNDEuNjMuNjIuMi0uMTUuMzktLjMxLjU5LS40Ni4xMjAwNi0uMS4yNC0uMi4zNzAwNi0uMy4wMi0uMjYuMDUtLjU2LjA4LS44OVoiLz48cGF0aCBmaWxsPSIjZTZlNmU2IiB0cmFuc2Zvcm09InRyYW5zbGF0ZSgtMTU4LjEwNTg0IC0xMzMuMzI0OTgpIiBkPSJNNDk3LjE2MDMxLDM4OC40NTUzNmE1LjUsNS41LDAsMCwwLTUuNSw1LjQ5OTk0djUzLjIwNjE4aC0xMDUuNWE1LjUsNS41LDAsMCwwLDAsMTFoMTA1LjV2MzA2aDExVjM5My45NTUzQTUuNSw1LjUsMCwwLDAsNDk3LjE2MDMxLDM4OC40NTUzNloiLz48cGF0aCBmaWxsPSIjZmZiNmI2IiB0cmFuc2Zvcm09InRyYW5zbGF0ZSgtMTU4LjEwNTg0IC0xMzMuMzI0OTgpIiBkPSJNNDA2LjA0NDE5LDQ0My41ODE2MmExMC41NDg2OSwxMC41NDg2OSwwLDAsMC0xNi4wNTgwOS40ODQ5NGwtMjMuMDUwOTItNi40NzExOC03LjM0OSwxMy4wNDg4NCwzMi42ODA3MSw4LjY4MTM3YTEwLjUzMzksMTAuNTMzOSwwLDAsMCwxMy43NzczNC0xNS43NDRaIi8+PHBhdGggZmlsbD0iIzJmMmU0MSIgdHJhbnNmb3JtPSJ0cmFuc2xhdGUoLTE1OC4xMDU4NCAtMTMzLjMyNDk4KSIgZD0iTTM1NC42Miw0MjguMjVjLTEuNjctLjg3LTMuMzQtMS43Mi00Ljk3LTIuNTEtMy41NC0xLjc1LTYuODMtMy4yOC05LjI1LTQuMzJhODMuNjM2NDcsODMuNjM2NDcsMCwwLDAsMi44Mi0xMS4wMmMyLjg0LTE0LjMyLDQuNzctMzYuNjM5OTUtOC4xOC0zNS45OGExNi44OTc1LDE2Ljg5NzUsMCwwLDAtNS40NCwxLjMyYy0xMC4wOSw1LjYxLTEzLjU1LDI3LjkyLTE4LjA3LDM3LjEzLS43OSwxLjA3LTguODEwMDYsMTIuMTktNy41MiwyMC40MiwzLjY2LDgsMTUuMywxNC44NCwyNi4yMSwxOS4yOWwuMDEuMDFjMi4xLjg2LDQuMTgsMS42Myw2LjE2LDIuMzEsMi4yNi43Nyw0LjQxLDEuNDEsNi4zNCwxLjkxLDMuODUsMSw2Ljg2MDA1LDEuNDUsOC4zMSwxLjI1YTIzLjQyOTU1LDIzLjQyOTU1LDAsMCwwLDUuNjktLjY2bDIuMjktNC4wNCwxLjQxLTIuNSw3LjM3LTEzLjAyLjc2LTEuMzRBMTEwLjAyNTc4LDExMC4wMjU3OCwwLDAsMCwzNTQuNjIsNDI4LjI1WiIvPjxwYXRoIGZpbGw9IiNmMmYyZjIiIHRyYW5zZm9ybT0idHJhbnNsYXRlKC0xNTguMTA1ODQgLTEzMy4zMjQ5OCkiIGQ9Ik04NTUuOTMsNDk3Ljk0Yy0yMi44Niw5LjMzLTQ4LjcsMTYuNDQtNzcuNzgsMjAuODJhNDYwLjU2MjQ2LDQ2MC41NjI0NiwwLDAsMS01Ny4wNiw0Ljg0cS0yNS4wOC42My01Mi44Mi0xLjEzVjE1Ni4zOGE2LjkyMDIxLDYuOTIwMjEsMCwwLDEsNi45Mi02LjkxbDIuNzYuMDEsMTEuMDcuMDNoLjE5bDI5Ny4xOC43NGgxLjM1bDEwLjc0LjAzcTIuMzEwMDYsNy40NCw0LjMwMDA1LDE1LjMzQzEwMjkuNTQsMjcxLjksMTAwOS43OCw0MzUuMTUsODU1LjkzLDQ5Ny45NFoiLz48cGF0aCBmaWxsPSIjZjZjN2FjIiB0cmFuc2Zvcm09InRyYW5zbGF0ZSgtMTU4LjEwNTg0IC0xMzMuMzI0OTgpIiBkPSJNNzM0LjU1Nzg4LDMwMy41NDM0M2MuMTc2ODQsMTIuMTEyLTE4Ljg0ODYxLDEyLjExMjA4LTE4LjY3MDIxLS4wMDA4M0M3MTUuNzEwNzgsMjkxLjQzMTQ3LDczNC43MzYyMywyOTEuNDMxMzYsNzM0LjU1Nzg4LDMwMy41NDM0M1oiLz48cGF0aCBmaWxsPSIjY2NjIiB0cmFuc2Zvcm09InRyYW5zbGF0ZSgtMTU4LjEwNTg0IC0xMzMuMzI0OTgpIiBkPSJNODk4Ljg2LDMxOC42Nkg3MTguNjdhMi43NzUsMi43NzUsMCwxLDAsMCw1LjU1SDg5OC44NkM5MDIuNTEsMzI0LjI3LDkwMi40MiwzMTguNiw4OTguODYsMzE4LjY2WiIvPjxwYXRoIGZpbGw9IiNjY2MiIHRyYW5zZm9ybT0idHJhbnNsYXRlKC0xNTguMTA1ODQgLTEzMy4zMjQ5OCkiIGQ9Ik04MzQuOCwzMjkuNjRINzE4LjY3YTIuNzgsMi43OCwwLDAsMCwwLDUuNTZIODM0LjhDODM4LjQzLDMzNS4yNSw4MzguMzcsMzI5LjU5LDgzNC44LDMyOS42NFoiLz48cGF0aCBmaWxsPSIjY2NjIiB0cmFuc2Zvcm09InRyYW5zbGF0ZSgtMTU4LjEwNTg0IC0xMzMuMzI0OTgpIiBkPSJNODk4Ljg2LDIzNi4xNkg3MTguNjdhMi43OCwyLjc4LDAsMCwwLDAsNS41Nkg4OTguODZDOTAyLjUxLDI0MS43Nyw5MDIuNDIsMjM2LjExLDg5OC44NiwyMzYuMTZaIi8+PHBhdGggZmlsbD0iI2NjYyIgdHJhbnNmb3JtPSJ0cmFuc2xhdGUoLTE1OC4xMDU4NCAtMTMzLjMyNDk4KSIgZD0iTTgzNC44LDI0Ny4xNUg3MTguNjdhMi43OCwyLjc4LDAsMCwwLDAsNS41Nkg4MzQuOEM4MzguNDMsMjUyLjc2LDgzOC4zNywyNDcuMSw4MzQuOCwyNDcuMTVaIi8+PHBhdGggZmlsbD0iI2NjYyIgdHJhbnNmb3JtPSJ0cmFuc2xhdGUoLTE1OC4xMDU4NCAtMTMzLjMyNDk4KSIgZD0iTTgzNC44LDI1OC42Nkg3MTguNjdhMi43OCwyLjc4LDAsMCwwLDAsNS41Nkg4MzQuOEM4MzguNDMsMjY0LjI3LDgzOC4zNywyNTguNjEsODM0LjgsMjU4LjY2WiIvPjxwYXRoIGZpbGw9IiNmNmM3YWMiIHRyYW5zZm9ybT0idHJhbnNsYXRlKC0xNTguMTA1ODQgLTEzMy4zMjQ5OCkiIGQ9Ik03MzQuNTU3ODgsMzc1LjQ4MzExYy4xNzY4NCwxMi4xMTItMTguODQ4NjEsMTIuMTEyMDgtMTguNjcwMjEtLjAwMDgzQzcxNS43MTA3OCwzNjMuMzcxMTUsNzM0LjczNjIzLDM2My4zNzEsNzM0LjU1Nzg4LDM3NS40ODMxMVoiLz48cGF0aCBmaWxsPSIjY2NjIiB0cmFuc2Zvcm09InRyYW5zbGF0ZSgtMTU4LjEwNTg0IC0xMzMuMzI0OTgpIiBkPSJNODk4Ljg2LDM5MC41OUg3MTguNjdhMi43OCwyLjc4LDAsMCwwLDAsNS41Nkg4OTguODZDOTAyLjUxLDM5Ni4yLDkwMi40MiwzOTAuNTQsODk4Ljg2LDM5MC41OVoiLz48cGF0aCBmaWxsPSIjY2NjIiB0cmFuc2Zvcm09InRyYW5zbGF0ZSgtMTU4LjEwNTg0IC0xMzMuMzI0OTgpIiBkPSJNODM0LjgsNDAxLjU4SDcxOC42N2EyLjc4LDIuNzgsMCwwLDAsMCw1LjU2SDgzNC44QzgzOC40Myw0MDcuMTksODM4LjM3LDQwMS41Myw4MzQuOCw0MDEuNThaIi8+PHBhdGggZmlsbD0iI2Y2YzdhYyIgdHJhbnNmb3JtPSJ0cmFuc2xhdGUoLTE1OC4xMDU4NCAtMTMzLjMyNDk4KSIgZD0iTTczMS41OTAwOCwyMjEuMTIzNjRjLjE3NTUyLDEyLjAyMTUzLTE4LjcwNzg5LDEyLjAyMTY0LTE4LjUzMDgyLS4wMDA4M0M3MTIuODgzNjgsMjA5LjEwMjExLDczMS43NjcxLDIwOS4xMDIsNzMxLjU5MDA4LDIyMS4xMjM2NFoiLz48cGF0aCBmaWxsPSIjY2FjYWNhIiB0cmFuc2Zvcm09InRyYW5zbGF0ZSgtMTU4LjEwNTg0IC0xMzMuMzI0OTgpIiBkPSJNOTkxLjEyNSwxNTEuNTkzODVjLTEuNDM0MjUtMS40Mzg1MS0zMTQuNDYzODYsMi43NjY4NS0zMTQuMTA3NzEtMS40NTQ4NUM2NzUuNDc2NTYsMTQ4LjU0Nyw5OTkuNzA4LDE0NC45MDU2MSw5OTEuMTI1LDE1MS41OTM4NVoiLz48Y2lyY2xlIGZpbGw9IiNjYWNhY2EiIHI9IjE2LjE0NzE5IiBjeT0iMTYuMTQ3MTkiIGN4PSI1MDMuNzAxNjYiLz48Y2lyY2xlIGZpbGw9IiNjYWNhY2EiIHI9IjE2LjE0NzE5IiBjeT0iMTYuMTQ3MTkiIGN4PSI4NDQuNDA3MjkiLz48cGF0aCBmaWxsPSIjY2FjYWNhIiB0cmFuc2Zvcm09InRyYW5zbGF0ZSgtMTU4LjEwNTg0IC0xMzMuMzI0OTgpIiBkPSJNODU1LjkzLDQ5Ny45NGMtMjIuODYsOS4zMy00OC43LDE2LjQ0LTc3Ljc4LDIwLjgyYTQ2MC41NjI0Niw0NjAuNTYyNDYsMCwwLDEtNTcuMDYsNC44NHEtMjUuOC0uMy01Mi44Mi0xLjEzVjUwOS43MUM2OTIuNTIsNDg5LjM2LDc5Ni40Miw0ODYuMTEsODU1LjkzLDQ5Ny45NFoiLz48L3N2Zz4=;" parent="WIyWlLk6GJQsqaUBKTNV-1" vertex="1">
          <mxGeometry x="260" y="136.16" width="71" height="52.32" as="geometry" />
        </mxCell>
        <mxCell id="X5NU6dxAT5ho14sx0l3U-8" style="edgeStyle=orthogonalEdgeStyle;rounded=0;orthogonalLoop=1;jettySize=auto;html=1;" parent="WIyWlLk6GJQsqaUBKTNV-1" source="X5NU6dxAT5ho14sx0l3U-7" target="X5NU6dxAT5ho14sx0l3U-6" edge="1">
          <mxGeometry relative="1" as="geometry" />
        </mxCell>
        <mxCell id="X5NU6dxAT5ho14sx0l3U-7" value="" style="rounded=0;whiteSpace=wrap;html=1;" parent="WIyWlLk6GJQsqaUBKTNV-1" vertex="1">
          <mxGeometry x="20" y="132.32" width="50" height="60" as="geometry" />
        </mxCell>
        <mxCell id="wAY7UkbXzBPVHrCULIcp-0" value="" style="shape=image;verticalLabelPosition=bottom;verticalAlign=top;imageAspect=0;aspect=fixed;image=data:image/png,iVBORw0KGgoAAAANSUhEUgAABBMAAAGjCAIAAADxVsrYAAAACXBIWXMAAAsTAAALEwEAmpwYAAAgAElEQVR4nO3d938UVf////c/9BFQudTLAgmRjoggHektCGIFxIIURYqASjfUgIUmltCbdJDeewlJSN1sku07O99b2OsbY8rOZrM7r5kzj/vt9YNCErJnz5kzz52Zc/5PBwAAAAAj/2f4FQAAAABAcgAAAABgjOQAAAAAwBjJAQAAAIAxkgMAAAAAYyQHAAAAAMZIDgAAAACMkRwAAAAAGCM5AAAAADBGcgAAAABgjOQAAAAAwBjJAQAAAIAxkgMAAAAAYyQHAAAAAMZIDgAAAACMkRwAAAAAGCM5AAAAADBGcgAAAABgjOQAAAAAwBjJAQAAAIAxkgMAAAAAYyQHAAAAAMZIDgAAAACMkRwAAAAAGCM5AAAAADBGcgAAAABgjOQAAAAAwBjJAQAAAIAxkgMAAAAAYyQHAAAAAMZIDgAAAACMkRwAAAAAGCM5AAAAADBGcgAAAABgjOQAAAAAwBjJAQAAAIAxkgMAAAAAYyQHAAAAAMZIDgAAAACMkRwAAAAAGCM5AAAAADBGcgAAAABgjOQAAAAAwBjJAQAAAIAxkgMAAAAAYyQHAAAAAMZIDgAAAACMkRwAAAAAGCM5AAAAADBGcgAAAABgjOQAAAAAwBjJAQAAAIAxkgMAAAAAYyQHAAAAAMZIDgAAAACMkRwAAAAAGCM5AAAAADBGcgAAAABgjOQAAAAAwBjJAQAAAIAxkgMAAAAAYyQHAAAAAMZIDgAAAACMkRwAAAAAGCM5AAAAADBGcgAAAABgjOQAAAAAwBjJAQAAAIAxkgMAAAAAYyQHAAAAAMZIDgAAAACMkRwAAAAAGCM5AAAAADBGcgAAAABgjOQAAAAAwBjJAQAAAIAxkgMAAAAAYyQHAAAAAMZIDgAAAACMkRwACykoKMzO3vzxlFm9eg57+aVuLzzfuWWL9HbpPfv3G/Peu5+tWfPThQtXQqGQ9K8JAACciOQAWMLJk2dHjny/ZYu0Fk8Z1PPPdZo0acZff50gQgAAADORHABhjx8XjX97imFgqF9pbXvMn7+0uLhY+hUAAABHIDkAko4ePdXmldcTiA019ewzr86c8U1ubl70BwYCofv3H545c2Hf3r82bfo9K2vDwgXLFyxY/sUX86d9Pnfa53O/+GL+l18uXPDkD9es+Wnnzv3nzl56/LhI0zS6AgAAiIHkAIjZuXN/q5btmhMbaqpVy3YDB2S2f7V3PPc7NVhPt8ro0mXARx9OX7Pmp6tXb0QiEXoGAACojeQAyNi/73CyYkMqKj3tjelfzL9w4Qr9AwAARJEcAAE3b955/rlO4vEgnurVa/i+vX9xCQIAAJAcALP5fP7ur70lHgmaVD9u3EpHAQDA4UgOgNkWLFgungSaVO3Se1ZVeegoAAA4HMkBMNX9+w+fbpUhHgaaVNu374z+8ndu39u86Xd6DAAAzkRyAEz13rufiSeBJlX/fmOiDznk5OyNPpuxc+d+Og0AAA5EcgDMc+fO/YRXTZWqM2cuhEKh2ndYvfRit9LSMvoNAABOQ3IAzPP5Z3PEk0CTatKkGQV5hQP6j63z59O/mE+/ARDl9wdu3bp77Ojp3bsObtuas3HD1qysDVlZGzZu2Lpta87uXQePHT1969bdQCBEiwF2R3IATOLz+V54vrN4GIi/Wj/bYfuvO9La9qj/Vy1bpF25coOuAziTy+Xeu/eveXOXZI79qEvn/i1bpP/v4PD//n2s+Pf/tmyR3qVz/8yxH82bu2Tv3r9cLrf06wDQZCQHwCQ5OXvFw0CTqs0rr8e4t2rE8HfpOoBzaJp2/Pjf8+Yu6dN7ZFLuumzZIq1P75Hz5y05ceKMpmnSrw9AXEgOgEnGZU4WDwPJrU2sswQ4wJ0795csXt2pY7/UHUwy2vWa/dW3167dlH6tAAyQHAAzFBcX224xVsNq/WyHmzfv0IEAJWmatnPn/n59R5t5VOnXd/TOnfu5BAFYFskBMMPyZevET/RTUd26DmSdJUAxoVBo+/adglvdd+7Ub9Om30MhnqgGLIfkAKRcIBBq3763+Fl+iqpvn9GVlVV0I0ANO3fu79ihr/iBpcVTaZ069tu164B0ewD4F5IDkHLr120Sn4NTWgMHZrpcLnoSYGsP7ueOHfOR+PGkTg0fNvHO7XvSbQPgf0gOQGqVlZW/9GI38dk31dWly4B79x7SmQA7CgRC33+X9ewzr4ofSRqs1s+2X/z9Km5eAqyA5ACkUCQSmTBhqvi8a06lp71RXFxMfwLspSCvcODATPEDiGH17Ts6NzdPurUApyM5ACm0bu0v4tOtmfX17O/oT4CN7N93+OWXbHNR9IXnO+/edVC6zQBHIzkAqbJ718F/tlZ1RnXtMpD+BNiCpmlz5ywWP2gkUPPnL2XZVkAKyQFIif37j6i3gYNhtWyRxowOWF8gEProw+niR4yE692Jn/r9AelWBJyI5AAk35UrN1o/20F8chUpVmgFLM7j8VpwDaWm1ojh73K0AcxHcgCSb9CgceLTqlTxQSBgZW53RV9zt4VOXfXrO9rtrpBuUcBZSA5Akj16lC8+oUrVC893pj8BluXz+YYMHi9+oEhiDRyQ6fP5pNsVcBCSA5Bkfx06Lj6bSlX/fmPoT4A1aZr27sRPxY8SSa/xb09hqwfANCQHIMn27z8iPpVK1cdTZtGfAAuKRCKfffq1+CEiRTXt87mRSES6jQFHIDkASXblyg3xeVSqVqxYT38CLGjt2p/Fjw8prezszdJtDDgCyQFIskAg9J/WDl1Y6cCBo/QnwGouXbr2zNOKLxL9dKuM8+cvS7c0oD6SA5B8kybNaOYs2COj15zMD3/+7MvN02ZvnjZ7/cczVk2atuKDzxZOmLxwwuQZI9+dPnLilMHjPhg4ZmK/UaN6Dh3Vc2i/zv36de73ekavLm1f7/BK95ef6/SfZ141efJ2uVz0J8BS3O6KTh37iZ/Zm1Ad2vdxudzS7Q0ojuQAJN+xo6cTm/meaZXxyZC3r2Wt0XfsSEqF/vijfMu23A0/XV+19sySlYcXLtn19YLN02avmTJ9ybtT52R+MGXwuJE9Br/x6ptp/+3SzGm7W1c2kAYsJ/ZT0U9Jn+4nt95/73Pp9gYUR3IAkk/TtB6vD2nqnDehz4gH6zckKzMkUOE//yzY+PPhhUtGvdHkX77FU2mffDKbzgRYyt69f4mfzZtc+/cfkW51QGUkByAl9jVlwv5v6w6/z5onmBnq19mlK4e8NqhJE/bmzb/TmQDr8Pl8HTv0FT+VN7nat+/t8Xil2x5QFskBSIlIJDJ0yIR45rnu7Xo+XL9RPCrUr0hOzp45C1/P6BXnhH379j06E2AdCxYsFz+PF6lvv/1Buu0BZZEcgFS5d+9h62cNFlnq3aFP+ZZt4iEhRmk5Ob9On9OhTffYL+SlF7tpmkZnAizi7t0Hyq+n1Fg983TG/fsPpd8BQE0kByCFNm7YGmN665rWo+SXzeLZIJ4K/P7H2ilfvND4arOZmZPoSYB1TJk8S/wMXrB47ApIEZIDkFoTxn/c4MTW+umMJK6hZE7l//jzmx37NPhyVixfR08CLCI3N69Vy3bip++C9XSrjNzcPOn3AVAQyQFIrZUrsxuc2H78ZJZ4Ekig3Fu39Wzfu/7LOXnyLD0JsIgvvpgvfu4uXjNnfCP9PgAKIjkAqbVjx776U9qonkPFM0DCdXdt9nP/3mOuVct2LGYCWERhYfGzpu8CacF69plXCwuLpd8NQDUkByC1rly5UWc+e7plu5ur14kHgObU4nen1n5FffuOphsBFrF82Trxs3aL1MqV2dLvBqAakgOQWlVVnjqT2bxxH4mf+jezKrf9+vyz7Wte0VdfLqIbARbR/bW3xE/ZLVLduw+WfjcA1ZAcgJRrl96zZiZ7oXUH15at4qf+za9pw9+peVE5OXvpRoAVnD9/Wfx83VJ1+dI16fcEUArJAUi5oUP/OcleMGGy+El/UuqvBd/XvKj8/Md0I8AKZs5cIH6ybqma/dW30u8JoBSSA5By06bNjc5hz7ZqV2yTDRwMy/Pr9pYtql/Uqxlv0ocAK4hEImlte4ifrFuq0tN6RiIR6XcGUAfJAUi51at+jM5hk9/KFD/jT2J1e7I864cffEEfAqzg+vXb4mfqFqzbt+9JvzOAOkgOQMrt33c4OoH9vXiF+Ol+EuuD4RNbPJW2fv0m+hBgBevXbxI/TTehOr/YpUlfv3HDVul3BlAHyQFIudu377V4Kq3DK90jOTnip/tJrO8+ntHiqbRLPIAIWMOECf9aLlnVmtZzcJO+/t2Jn0q/M4A6SA5Ayvn9gVYt0hVYjLVOZc+Y1/rZDqFQiD4EiNM07cX/dhU/rTehVg3NbPufDvF//csvddM0Tfr9ARRBcgDM0KltjwvLs8TP9ZNbvy1aNmzoRDoQYAW5uXni5/SmJYfRHasfsoq/8vIKpN8fQBEkB8AMn42YqNitSvqOHXtXrl20cAUdCLCCv/464ZzksKD/yJZN+ZajR09Jvz+AIkgOgBkur9sofqKf9NqTtf7gwaN0IMAK1q/b5JzksGpoZlpTbljasGGL9PsDKILkAJji2DHxE/2k1+7V2WVl5XQgwApmTJ/vqOTwVsYb8X/LrFkLpd8fQBEkB8AU58+Ln+gnvc7u2EPvASxi5Mj3HZUcPu4xKP5vGT3qA+n3B1AEyQEwxa1b4if6Sa+y23foPYBF9Ok90lHJYWH/EfF/S9++o6XfH0ARJAfAFAUF4if6yS+vl94DWETXLgMdlRyyhmQ+0zI9zm95rdsg6fcHUATJATCFxyN/op/c2ruXrgNYR3paE+77r6k2rTsMb9/LXhVNDquGZqY/1zHOl9kuvaf0+wMoguQAmOXAAfnT/STWuXN0HcA6nn+uUwLJYUC7HjUn4rarbi/Fu/PdC893ln5/AEWQHACzXLwof7qfxHrwgK4DWEfLFonc+TP01X8+wrdd9WzzWpwvs2WLNOn3B1AEyQEwS16e/Ol+sionp/r+KwCWkdgzA6M79BYPAAlX3/Qe8b9S6fcHUATJATBLOKzv3i1/0p+UOn6cfgMokBzGdLRxchhAcgBMR3IATHThgvxJf1KKW5UAJZJD7QeObVe927zONQfAZCQHwEQlJfIn/c2vXbv0YJB+AyiQHAZlvCEeABKu7i93IzkAJiM5AOY6elT+1L+ZdfkynQZQIzn0bttdPAAkXB3+25nkAJiM5ACYS4Et4Xg2GlAlObz6QmfxAJBwPfd0BskBMBnJATDdX3/Jn/0nXBcv0mMAZZJD61btsqQDQGK1ZNCYJr1S6fcHUATJATBdcbF8AEisdu/WvV56DKBMcmjxVNqiASPFY0ACNePNoSQHwHwkB0DCuXPyMSCBunuX7gIolhwmdR8oHgMSqDEde5McAPORHAAJXq/99nY4fFjXNLoLoFhyGJBuy+WVur7YheQAmI/kAAix15bSO3fqbjd9BVAvObz8bHvbPeqwfPCYZ1q0IzkA5iM5AHIuXpSPBHHWw4d0FEDJ5NDiqbRZbw4VDwNNqkmvDWjqa5R+fwBFkBwAOeGwfuSIfCowrAsX6CWAwslhYLse4mGgSfXaS03YA47kACQRyQEQ5ffrhw7JZ4MYdfJkdcIBoG5y+E+rjOVvjRHPA3HWogGjWjb9NUq/P4AiSA6AtKoqfd8++YTQYB09qodC0g0EILXJocVTaW937iMeCeKstzLeSOAF0oeApCA5ABZQUWHF8HDsmB4ISDcNADOSw3+feXXFEBtcdvh+4KimPhtNcgCSiOQAWIPHY63blk6e1INB6UYBYFJyaPFU2rjOfcWDgWENSuiCA9ccgGQhOQCW4ffrJ07IZ4YdO/RLl/RIRLo5AJiaHFq3avettfeTnt1nWAJPOJAcgCQiOQBWEonoN29KZoZdu/RHj6RbAYBAcmjxVFqvNt3F40FjlTU0s/0LnRJ+aXQpIClIDoD1FBfrBw4IxIZjx/TKSukXD0AsObR4Ku3Dbv3FQ0KDNbpD7+a8LnoVkBQkB8CSwuHqiw87d5qUGfbs0e/d0zVN+mUDSFCTTqO7dO7f2F8906LdnD7DxHNCnZr+5uCE71MiOQBJRHIALKyyUj93LuW3J127xhpKgN21eeX1+E+jf/55e4y/bfufDksGjRZPCzX1Tf8RLzzzanNiQ1rbHtLvD6AIkgNgeVVV1bs4J/36w549+o0bZAZADb16DY//TNrn86enxVqkqP3znSyyN9ziQaPatu7QnNjQ4qm03m+OlH5/AEWQHACbCIX03NzqxVJzcpoVGHbu1E+frv5R7AwNKGTWrIVNunUnK2tD7K/p9lLX5YOFw8OSQaMznk/8qeiamv3Vt9LvD6AIkgNgNz5f9fJHFy/qBw82IUUcOaJfvaoXFrJLA6Ck48dPNyk5VFZWvfjfrrG/rP3znQRvW1o0YGTb/zT3akO0Tpw4I/3+AIogOQB2Fgrp5eV6Xp5+545+/bp+5Ur1fU0XL1aHhBs39Lt39YKC6ocl2JwBUF0kEunTe2T8yUHX9UULVxh+ZdvnOs7vP8L82PBV72H/bd6zDTX1Zq8RGss/AElCcgAAwFmXHaJfX1xc2vpZ4w/1W7dqN6n7QDNjw3td+z/dIgmZIVonT56VfmcAdZAcAABQxPffZcWfHHRdnzlzQZzn333TXl88aFSqM8PC/iO6v9wtWZmhxVNpS5asFn1DANWQHAAAUEQkEpk545v4k0Nubl6rlu3iPAt/rlXGu137Z6UmM6wYPHZsx97PtExPYmyYOXNBhHs1gaQiOQAAoJSffvr1hec7x5McdF2fMnlWk07HX27dYUKXvisGj01WZlg+eMyELn1fTNJTDdF64fnOv/yyXe4dAJRFcgAAQDUlJWVfz/4urW0Pw+Rw8+adBE7NX3y2/YgOb87rN7w5meGrPsOGZPR87umMJGaGtLY9vv76u5KSMrm2B1RGcgAAQE2apl24cOW333ZlZW1YsGB5TdX5suzszbX/tkn17awFS6ZMXzH+ox+GxZUWfhj+9rLxHy3+eMai2YsS/kfrV1bWht9+23Xx4lWWUQJSiuQAAACaSwuHXfkF98+cv5iz+9Qv246u3Xhw+epDK9YcW/fTqV+2Xd617+GFS+7C4ggLpAJ2RnIAAAAAYIzkAAAAAMAYyQEAAACAMZIDAAAAAGMkBwAAAADGSA6AFWih4oe+C3u8p7Z7T//uPZPjPZPjO7/bd2Gv7+Je35VDviuH/FcPB24cD9w47r99OnD778CdM4H7F6vr4eXgo2vVlX8rVHgn+PhOuCQ3XJIbKn0Udj2urooSraqsunyV1eX3REKBSCigs8IJAABoCpIDIEsLFT3wntvlPb5ZrE5tf5JYfvtXYrnw78Ry54zmraCvAADgZCQHQIoWLsn1ntspmRmaUp5jmwM3jmveSnoMAADORHIAzGezzPCv/HB8i//mSc1XRb8BAMBpSA6AmWycGerkh8DtvzW/l94DAIBzkBwAU0S0UOE979kd4if9ycwPJ7YG7p7TAj76EGAnmhauKA3m3/LfPFn9kNWTB5xqV93lGa4dqV6b4cbx6rUZbv8duHcuujzD/782w81Q4Z1Q0f3qhRnK8qtXZXA/WZXBU1G9JEPAX70eQyQi/ZoBJAfJAUgxFTPDv/PDtsD9i9UnBwCsSvNWhoruB+6e813c5zmxReZwcfLX6sUYzuR4z+bUJBP/1b+qY8nNE0+WjDtbnUkePFkvLu9JICm8F65ySTcegH+QHICUUT0z/Cs/nHySH8JB+hNgCaFA2F0cfHTNf+1I9cpp0oeIZtXp3wI3jocK73CHJCCO5ACkgBbNDDnyM67JdWp74OFlPUR+AEynaWFPeajwXuD2395zuzzHNskfEFJRZ3ICd8+FXY/1cJhOBpiP5AAkPTPc8f79h/z8Klinfws+usa8DqSa5veGSvMC9y/6Lu33nNgqP/ZNLM+Jrb4rh4KPrmlVZfQ0wDQkByBJyAx1pva//wjm3yQ/AMkUDITKCoIPr/ivHq5+ZkD69N0qdebPwO2/QyW5PHAFpBrJAWi2cJjrDDFm9FDhHV3T6GdAs4SCwdwr1Q8Zi5+mW7g8xzf7LuwN3L9YfTsThx0gBUgOQDNooWD+Te/fv4vPl1avMznV+YGVGYGEhIruc5xp8mHn1K/+68eCBbfZuRJIIpIDkJBwsDoznCYzNGUiP7crVHhP17n+AMRLCwb8N47Lh3+719kdgbtng8UPOP4AzURyAJqIzNC8Kdx3fle4JJduBxjSqsq41JDcCOE7tyvE8QdoBpIDELfQk3uTuM6QlPn74r5QaR6dD2hMuLzQw1MNqbkE4bt8UPO46XtAAkgOQBxCgWDuVVYyScH8fSDsLqILAg3EhuNCOz07ozwntlYv/gagiUgOQEyhYPDRNTJDCufvY5sDd8/x8DRQQ/NV2X7XZ5uU/8ZxVo4GmoTkADRKqygjM5g0f189HAmz8zRQvTOM78Ie8VNq55Tv8kEOPkD8SA5Aw0IluR7pKc1ZdW6n5vfSHeFwwYJb8oPRYeW7fECPsOYbEBeSA9CAcHlRFTcZmz+Fn91BeIDDec/uED+TdmAF7p6VfucBeyA5AHWFyvI9J7aKz2QOrXM7tSBXHuBQYXex/Bh0arFaNBAPkgNQb0kTYoPo/O27sFcPh+iXcKDq9RikT6CdW2f+5GlpwBDJAfiHVlXmOblNfgJzfPlvnqRfwoECd84w/AVbIFT0QLoLAFZHcgD+Rwv4vH//wbRtkRYIFtyma8Jp/DdPiA89J5f/+lHpLgBYHckBeCKi+S4fEJ+3qJoW8JzYwiavcBr/9WMcBCRb4PRv0l0AsDqSA1AtcP8iE7bVWsB36QC9E47iv3pYfNw5uTzHNukay7MCsZAcAD1cUcLWDdasUOE9Oiicw3flkPigc3hpAb90LwAsjeQAx9M077md4tMV1XALnPpNCwYc30fhFL5L+zkUCCcHv0e6FwCWRnKA0wUfXWeqtnILBB5cku4jgEl8F/aKjziHl+atpLsDMZAcYFcul3vnjkNZP/y8bGl24rV4zfefT1v82WeUZVvg+88+X7Z4TbPe5YYq64efd+08VF7ulu7IwD9853eJnzo7vFiYAYiN5AD7CQRCS5esz0jv3+bl3hQt0JwWyEjvv2zphkCAjedgCd6zO8RPnR1e4coy6V4AWBrJATbj9wcmjP+c02VaIIkt8M74aYEAT1NAnvfMn+Knzg6vsLtEuhcAlkZygM18M38lJ820QNJbYME3WdJdG9C9p38TP3V2eIXLC+mIQAwkB9hJXl5BWpu+nDfTAklvgbQ2ffPyCqQ7OGygvLxy29ZdC+b/MHfO8qTX7A8/nv3hFEqwBebMWJiKd/bbRasP7D8eCoWl+y/QXCQH2MnGDds5aaYFUtQCP27cLt3BYXWHDp7s3HEIY5AWSKwFBvafePdurnQvBpqF5AA7+XLm98xYtECKWuCrLxdLd3BY2rlzV9Lbcs2TQ1CzWuCN10eVlbGkG2yM5AA7+XjKHM6baYEUtcDHU+ZId3BY2qgRkxl9tEDzW2Dxd2ul+zKQOJID7ITkwLSduhYgOSCGoqJSRh8tkJQW6NdnPGMN9kVygJ2QHJi5SQ4QcfXqLUYfLZCUFmiX1o9RDPsiOcBOSA7M3CQHiLh86QajjxZISgu0faUPoxj2RXKAnZAcmLlJDhBBcuDgk6wWIDnA1kgOsBOSA5M3yQEiSA4cfEgOAMkBNkNyYPImOUAEyYGDD8kBIDnAZkgOTN4kB4ggOXDwITkAJAfYDMmByZvkABEkBw4+JAeA5ACbITkweZMcIILkwMGH5ACQHGAzJAcmb5IDRJAcOPiQHACSA2yG5MDkTXKACJIDBx+SA0BygM2QHJi8SQ4QQXLg4ENyAEgOsBmSA5M3yQEiSA4cfEgOAMkBNkNyYPImOUAEyYGDD8kBIDnAZkgOTN4kB4ggOXDwITkAJAfYDMmByZvkABEkBw4+JAeA5ACbITkweZMcIILkwMGH5ACQHGAzJAcmb5IDRJAcOPiQHACSA2yG5MDkTXKACJIDBx+SA0BygM2QHJi8SQ4QQXLg4ENyAEgOsBmSA5M3yQEiSA4cfEgOAMkBNkNyYPImOUAEyYGDD8kBIDnAZkgOTN4kB4ggOXDwITkAJAfYDMmByZvkABEkBw4+JAeA5ACbITkweZMcIILkwMGH5ACQHGAzJIc4p670tv169hg9bMgHPXuMTm/bjyk/nhb4eMoc6Q4O6yI5cBghOQAkB9gMySH21NXh1UELv8k68/elcDhc02ihUPjM35cWfpPV4dVBzP0kBySG5MDRg+QAkBxgMySHGFPX17OXlpSUxWi9kpKyr75cwvTPNQckgOTAoYPkAJAcYDMkh8buTdq6dWecbfjH7/sy0vtzEsDdSmgSkkPsg0ZG+oCBAyZOePvzcWM/6f3muLQ2fTjINNYCbV/pw+iDff2f9C8ANAHJocFJaPfuw03qRjdv3uv1xljmdZ5zQPxIDo2dBE/9eO6Rw6d9Pn/t5iorK//jj30jh0/iOENygGJIDrATkkP9SWjJ4vUJtGQoFN6Q/WvnjoOZ13lCGvEgOdQ/Vgx+670rl2/GaDRNi+zefbhLp6EcZ7jmAGWQHGAnJIc6E/Abr4+u81Ffk9y//6h/3wlM6qytBEMkhzoHio8+/LKqyhtPz3n4MJ/jDMkByiA5wE5IDnUm702b/ky4MV2uCl3X3e7KwW+9R3hgVVbERnKofZQYOWJykz6z8Pn8M6Z/y3GG5xygAJID7ITkUOeDq6KikoQbs6S47NjRM7qu5z163K3LcCZ19nNADCSHmkNE545DYi/j1mgbXr4xeuQUDjU8IQ1bIznATkgOtSfd4cM+amZ7jh415fq1O7qu79p5iOmc5IAYSA41h4js9dsS7irBYJC1oUkOsDWSA+yE5EmDlzoAABlGSURBVFD7/P6TqfOa3559e78dDAY1LTJs6IcODw8kB8RAcogOk/YZA71eX2JdpeYa6fx5K8XHu2CRHGBrJAfYCcmh9vQzf97KZrZndP7++affdV3fkXNAfEKVLZIDYiA5RIfJlMlfJ9xPNE1buiQ7EomEQuEJ46eJD3mpIjnA1kgOsBOSQ+3pZ+aM75rZnjOfPLM4oN87Tx6Vrkhv2098ThUskgNiIDlEh8nGDdub008mT5q9IfvX6IJLjj3gkBxgayQH2AnJofb08+7E6c1sz4kTvoj+qIcP83Vdd/i2TSQHxEByiA6Tpu47Wcf8eSvT2/Z78OBR9X/PXSE+6kWK5ABbIznATkgOtaefzh2HBIOhhBszFArX7NB05MhpXdenfjxXfE4VLJIDYiA5/O9Ycbj6WJGwpUuy27zce9pnC3Rdv3bttvioFymSA2yN5AA7ITnUmYH+Pn0x4cY8dfJ8zc/Zvn0Pjy2SHBADySF6rPjtybEiYbNmft/m5d4Z6QM8Hm8kEun1xljx83iSA9AkJAfYCckhiU8rTvrwq5qfs2dP9R0IM75w9FZNJAfEQHKIDpPlyzY2p5+My/w0+nNOnjin6/qUyV+LD3zzi2sOsDWSA+yE5FB/Ejp//moCLXn27OV//ZBzV2o/9uDMIjlEBQIBl8tVWFiY/0RRUZHb7Q6FEr8vTg0kh+gwGTbkg4Tb0O2urHkq2snXOUkOsDWSA+yE5FB/EurdK9PlcjepGctKy9/s+c9NAh1eHeT3BzRN695thPicKlgkB03TysrK8vLy8hvidjetmymG5FAzUu7dy02sDbdv31PzQ37cuL3msQenFckBtkZygJ2QHBqch8aOmRoOh+NsQ7e7YuyYqbW/Pfq04oUL18QnVNlyeHLQNK2oqCg/ptLSUt2pSA7N3IPS7w/U/sBi185D1QtDz/hOfOCbXyQH2BrJAXZCcmhsKlqzalM8DXj79oN+fcfX/sa0Nn3v3n3o5BUSa8rhyaG0tDQ/DhUVFbojkRyaucLSku/X1f4J16/d0XX9nQlO3A+O5ABbIznATkgOjU1FGen98/Ie67peUVHVYNM9LiiaN3dF/a2Xlny/Ttf13Nz8dmkO3ZWpppycHPx+f37cnPnMA8mh9mDp1GHwo0cF8bfejh0Ha397zx6jI5GI1+t7td0A8YFvfpEcYGskB9gJySHGbDRl8teRSCQcDi9auGrpkuzNm3L27jmyeVPO0iXZjW3xNunDr7RqkY8+/FJ8NhUvJyeHsrKy+JODMy87kBzqjJcunYYEAsF4mm7zppy0Nn1rf++6tVt0XT+w/7j4qBcpkgNsjeQAOyE5xJ6QVj+5ZykcDi/8Jstw9po7Z3l0I7mVK34Un0qtUE5ODgUFBfEnh+LiYt15SA71h8ySxeujB5zGGu3mzXvvvTujznf17pXp8/kjkciokZPFR71IkRxgayQH2AnJwXBCiq5YUr3R26kLjV1qGDVycnQLuUgksn7d1rav9BGfSq1Qjk0OmqbFHxvy8/MfP66+L85pSA71h0xG+oCCgqLotpI7cg5cvnyjsLAkNzf/woVrP//0+4S3P09rU/fY0j5jYPQJh717jogPeakiOcDWSA6wE5JDPNPSzBnfud2V0RZ78ODRpl/+/HbR6ulfLPp20epNv/z58EFe9K/Kyyu++Hyh+CRqnSI5kBxiIDk0OGpGjZzs9wd0Xf/l5z/q3JJUv7p1GXbmzCVd1x8+zO/aeaj4kJcqkgNsjeQAOyE5xDkzde08dOOG7eXlDd+PXlZWnr1+W+eOQ8RnUEuVY5MDdyvFg+TQ2MD5dOq8YLD6gYfz566MGPZRY1/2ydR5+fmFuq4XF5UOHDBRfLwLFskBtkZygJ2QHJo0P6W16Tvh7c+XL9tQ87T0sqXZb4/7zPCjQWeWk5ODCU9Ih0KhqqqGF/6yBZJDjLEzbuwnpaWuJ3e+RU6duvDN/B8yx3zyZs+xA/q9M2H8tKwffr596360Ga9eudWzx2jxwS5bJAfYGskBdkJyEJ/zFC4nJ4dUr8paWVmZn5/v9/t12yI5xB4+Hdu/tXrVpuidSw1yudzfLVpTf2FoBxbJAbZGcoCdkBzE5zyFy8nJIXU7wYXD4ZKSEgVWZCI5xDOIunYeOnP6t3v3HKl5Wvr8+avbtu764P1ZGen9xce4RYrkAFsjOcBOSA7ic57C5fDkoGlacXFx7NhQWlrapJ/p9Xpr1nv1+Xy6nZEcxEeoMkVygK2RHGAnJAfxOU/hcnhyiIaHsrKyvLy8+pkhLy/P7XY36adVVFTU/KjCwupHY22N5CA+QpUpkgNsjeQAOyE5iM95ChfJISoQCLhcrsLCwtrJoUlXDGruUKrh8Xh0myM5iI9QZYrkAFsjOcBOSA7ic57CRXKIseZSZeX/dggxFAqFioqKaseGx48fa5qm2xzJQXyEKlMkB9gayQF2QnIQn/MULpJDfVVVVdGz/5KSknhGaDAYfPz4cZ07neJPHVZGchAfocqUVHKIaFpVaZm7sNhdWBzwekV+ByiA5AA7ITmIz3kKF8mhvlAoVBMADK8bBIPBmuehaxQUFChwwYHkID48FasjqzdczNl9/+9zZY/yQk/20UuVSKTgxq0TGzf9+tmXq4eNWzU0s6Y2TPho9zeLr+w94HGVp/AXgHJIDrATkoP4hKdwkRwaVPPAQ+zdGBqMDfn5+U19rtqyuOYgPkKVqbYv9659Br9qaObPH3yyY+6io+t+vLRr38Pzl8oLHmvhcHO7bCRy5/jprVNn1Pm36tfqEeP/Wrm2ojiu64oAyQF2QnIQn/MULpJDg1wul+FODqFQqP5NSlHh5p8AWQPJQXyEKpwcGjibH/72pkmf7/rm+xMbfrm69+CjS1criorjv3znLir+48v5hv9K7VozasKFnN1qXCFESpEcYCckB/E5T+EiOTTI4/HEftQhHA7XWYiphsvl0lVBchAfoY5KDg2f3I8Yv+Xj6Xu+XXbqpy3XDxzOv3qjqrSsfl/Nu3p9feZ7if0TuxcsDvpsvNc7TEBygJ2QHMTnPIWL5NCgYDBYs0RSkzafzsvLC4VCuipIDuIjVJlKODk0WGtHv7Pts1n7Fq88vfnXG4eP3Th0dM2oCc35gb/PmEN4QAwkB9gJyUF8zlO4SA6NiXHrUWVlZYOxIT8/v6ysgU9D7YvkID5ClankJodU1O6FS/RIRHrMwaJIDrATkoP4nKdwkRwaU1xc3OBD0oFAoLHYkJ+fHwgEdIWQHMRHqDJl/eSwamjmxR17pMccLIrkADshOYjPeQoXycHwIenaOzNEIpHGnoqOf/8HGyE5iI9QZcoWyWHNqAmVDT1EAZAcYCckB/E5T+EiOTSm5pak8vJ/1n0vLy+PccEh9hKudkRyEB+hypQtksOqoZlHVm+QHnawIpID7ITkID7nKVwkh8Z4vd46VxKCwWBeXl5jsaGoqEhXDslBfIQqU3ZJDqtHjPdVqLABPJKL5AA7ITmIz3kKF8mhMTXPM9REgpKSkhgXHLxer64ckoP4CFWm7JIcVg3NvH7gsPTIg+WQHGAnJAfxOU/hIjk0JhwORyNBQUFB7UsQDSosLNRVRHIQH6HKlI2Sw65vvpceebAckgPshOQgPucpXCSHGGqCgaZpNUstNcjj8egqIjmIj1BlykbJ4ceJk6VHHiyH5AA7ITmIz3kKF8khhppllGq2lG5QQUGBpmm6ikgO4iNUmbJRclg1NNNXa0U1gOSgAr/fX1FR4XK5ylPD5XJVVlZaZKUUkoP4nKdwkRxiKCwsjGaD2E84VFRU6IoiOYiPUGXKXsnBXVgsPfhgLVxzsB9N0wKBgN/v9/l8VVVV5Waxwk0IJAfxOU/hIjnEUHOHUowllRrcZFoZJAfxEapM2Ss5uPKqn24CapAc7ETTNK/XWy5HfFNYkoP4nKdwkRxiiH2pof5uD+ohOYiPUGXKXsmhsrhUevDBWkgOtqFpWkVFRc3tQ16v1+12m5wcqqqqZBuB5CA+5ylcJIcYSktLY8eGvLy8UCikq4vkID5ClSkbJYc1I8ZHFH1yCQkjOdhG9MYkt9tdMz1Hg4SZ3G63bCOQHMTnPIWL5NCc5OByuXSlkRzER6gyZaPksHXqDOmRB8shOdhDIBCInrvXvo24srLS5ORQKb3GAslBfM5TuFRKDsFgsKSkpLCwsPiJsrIyt9vt8XgCgUBiax/FTg55eXnBYFBXGslBfIQqUzZKDid/3Cw98mA5JAd7iIYEn89X+w/Nf+ZB/CFpkoP4nKdwqZQcovc3ut3uBh9oLi4urqioaNK5fuznHEpL1b8TmuQgPkKVKRslh7wr16RHHiyH5GAP0Uca6qxbEgqFTE4OdaKL+UgO4nOewqVYcogKBAJFRUWNnfEXFhZWVlbGsyBS7ORgkVWbU4rkID5ClSm7JIctU6frkYj0yIPlkBzsIbpdQ/0/N/khafHzA5KD+JyncCmZHKIqKysNl0WKnR9iJIfiYkcs905yEB+hypRdksOtoyekhx2siORgD9ET9/pTu8fjMTM5iN/KTHIQn/MULoWTQ/TJh5o9GRoT40GmGBcuxC9FmoPkID5ClanmJ4fVw8atH/d+tDZO+OiXDz+NVhJjwx+z5rGqEhpEcrDxcw7RswEzk4P4Nk8kB/E5T+FSOznEefGhuLi4wcVVCwoKGvz6wsJC3RlIDuIjVJlq+3Lve6fO3Dt15sG5i48uX4tW4a07JfceRKv8caG7sDhagSrP/8rrNeylR9duTEpsWDv6HffjIlMGFuyH5GDjtZWizEwOia3KkkQkB/E5T+FyQnKIPh8V+6GFgoKC+vclNrZ1tPiqCaYhOYiPUGWq7St9UtRLQ4FAzuwFzU0Ow8bdO302Rb8hFEBysPF+DrX/3By6NJKD+JyncDkkOUR5PJ7GLiPUjwThcLjBr3n8+LH4pwmmITmIj1BlKnXJofpzRo/3z9nfJH4f1PC3bx8/lbpfDwogOdh4D2mPx2PmZnDi28CRHMQnPLXLUckhmgdi7NKQl5dXc3tkIBBo8GvEN3gxE8lBfIQqUylNDtVXHoLBI6s3JBAbfnxncv7VGyn93aAAkoOdaJrW4B4O0ZWXUs0KZwlccxCf8xQupyWHKK/XG+PiQ/S2JY/HU/+vCgoKnHPBgeQgPjxVqlQnh6iH5y9tmvx5/LHhcNZ6nwVmeVgfycF+IpFIIBDwPRHdEdactVmtcEMzyUF8zlO4nJkcohcfysvLG0wOBQUF0X1j6v+VFS5CmolrDuIjVJkyJzlUf9oYDt8+dvKPWfNiBIbscR8cWbPBlV9gzq8EBZAc1Fl5KdW8cSzskGokB/E5T+FybHKI8vl8jx8/rp8QSkpKCgsL6/+5+EprJiM5iI9QZcq05FDDU+6+d+rM6U2/Hlyxet/ilfsWrzy6ZuPFnN0FN25pDhvIaD6SgwrM2dVBfBs4koP4hKd2OTw5RO+HdLlcjS2jVJvL5dIdhuQgPkKVKfOTA5BEJAcVNPjwg3rbwJEcxCc8tct2ycHn81VWVrrd7oqkKi8vLysrc9VTWloa/Y+ysrLy8vJk/XNVVVVWOLYYIjmIj1BliuQAWyM5qMDv95uQHBrcH8pk3K0kPucpXDZKDpFIxMx11RxyM2RsJAfxEapMkRxgayQHFZizk3QkEpF+oSQH+TlP4bJRcjDnBkWTBQIB3cJIDuIjVJkiOcDWSA7qLI2SaroFcM1BfM5TuOySHKJPI5QrxwrrPsdAchAfocqUTZOD3++vqKhI3cEnuleVFZ6oRGwkBxWYcCZhkRUYSQ7ic57CZZfkEF0mVT0WOcg0huQgPkKVKbskB03TAoGA3+/3+XxVVVWmHQqssAQ8YiA5KMIhHweSHMTnPIXLLsnBnGuM5rPIQaYxJAfxEapMWT85NLbtrGksfu+iw5EcFJHqxyUt8hkAyUF8zlO47JIcTBjvInw+n25hJAfxEapMWTw5aJoWPcJEbx/yer3m7DZbW1VVlXQzoFEkB0Wk+kqiRVY+ITmIz3kKl42SQyAQKFeOpmm6hZEcxEeoMmXx5BA9nXC73TULKpr/UYXF7110OJKDIlJ9YdEilw5JDuJznsJlo+Sg3mUHi3w2EQPJQXyEKlNWTg41n0rU3iS+srLS5AOCxe9ddDiSgyJ8Pl9Kh7FFtmoiOYjPeQqXvZKDSpcdXC5X7dMUayI5iI9QZcrKySEaEurcOmj+Mw/W/yjByUgOikj1aYRF5nWSg/icp3DZKznoum7+zcdqP0YVG8lBfIQqU1ZODtGjSp0Z3/z13Kyw8ywaQ3JQRKqXW7HCNnAkB/EJT+2yXXIwZ/P4VLPFBQeSg/jwVKmsnByiK7zLfk7BQw4WR3JQhKZpKR3JujV8MnWe+EGfUrUFPpk6T7cbBS472OW2BK45iI9QZcrKySE6KuuHeTP3rbfFRUgnIzmowwkfAHy7aLX4QZ9StQW++3aNbjd2v+xglwsOuq7fvZsr3kUpNVqgS6chuq2ec9B1PRgMmnZYsMhzlWgMyUEdqfv0UWpl5YqKquzsbWNHT+3ebYT4sZ5yTgt07zYic8zUDdm/VlTYYH0PW192sPKHi9ev39m8KWflih+XLc1etjSbjy3EB6Yy9VrX4dFOtWxp9qqsn3//fV9BfqFu4bWVokw7LAi9dMSL5KCO1K2bJjK7791zpGvnoeKHeMrJLdC189B9+46a3/ktta6aAy843LuXmzlmqnj3o5zTAm1f6T1r5ndVVR5r7udQ+89TjT3grI/koI7U3YZo/o3IW7bsED+UU7RAtAW2bd2lO/gZJ6edIty8ca9Th8F0flrA/BYYPOg9K4SH+ntIezwe0zaQscjmUYiB5KCO1H306Pf7zXwhly7dSGvTl3mLFrBIC6S16Xvl8k3dwux42cHlcllw4cVQKNy/7wTxLkc5tgW+nPm9bgGapjW4h0N05aWUHhYsspAjYiA5qCN1WzqY/LhS5thPxA/fFC1QuwXGj/tMtzA7Xnaw5gWHvXuO0PNpAcEWaPtK78LCYt0aIpFIIBDwPREIBDRNS/Vm0mwdbQskB3WkbukDMz8afJRbwLxFC1iwBfLyCnQLs91lBwtecNB1ffZXS8R7GuXwFsj584Du1MXcTL7BAYkhOagjdZvBaZpm2qvI+fOA+IGbogXqt8COnIO6hUUikXL7sOwnix+8P4vOTwvItsDaNVt0qwqHw6m7YcmySyagDpKDUlI0pM18CdnrtzFv0QIWbIHs7G26tTV4X7I1WfOCg67r706cLt7TKIe3wKqsn3ULS92j0hUVFdIvDnEhOSglFSu7m7wN3JbNrKokP3VR9Vtgy5YdurXZ5WkHy15wIDkw8K3QAhZPDqm7MbL+9nOwJpKDUlLxYYDJ0/zJk+fFD9wULVC/BU6fvqBbni0uO1h5g9gPP+BuJYa/cAusW2vdu5WerD8WctqlSNRBclBKKjZqMXkbuEAgwGLqnLhbrQW6dBoSCNhgVrP+ZQeL35Aw5+tl4p2NcngL7NxxSLc2Be5uQHOQHJSSik8czd8Gbu2azeLHbooWqN0C69dt1XWn7wip/AUHXdcPHjxBz6cFBFsgrU3fkhKX7ryDjMmfUaI5SA5KSfq6ByJrHfj9gdGjpjB70QIWaYGxo6faaFvT1K2xpvYTDlGapg15633xLkc5tgXmz1upW54aZxpIGMlBNX6/P1lD2uVySS2uXFrqGjt6qvhBnKIFMsdMLSuz2WX01G0K2Rxut9vM9Z0T9uB+3mtdh9PzaQHzW2D0yCl2eUpYjTMNJIbkYJLMMZwHMxXRArQALUAL0AK0AC2Q/BYYl/mpWSd0TkdyMMm4zE/5CIcWoAVoAVqAFqAFaAFaIOkt8DbJwSwkBwAAAADGSA4AAAAAjJEcAAAAABgjOQAAAAAwRnIAAAAAYIzkAAAAAMAYyQEAAACAMZIDAAAAAGMkBwAAAADGSA4AAAAAjJEcAAAAABgjOQAAAAAwRnIAAAAAYIzkAAAAAMAYyQEAAACAMZIDAAAAAGMkBwAAAADGSA4AAAAAjJEcAAAAABgjOQAAAAAwRnIAAAAAYIzkAAAAAMAYyQEAAACAMZIDAAAAAGMkBwAAAADGSA4AAAAAjJEcAAAAABgjOQAAAAAwRnIAAAAAYIzkAAAAAMAYyQEAAACAMZIDAAAAAGMkBwAAAADGSA4AAAAAjJEcAAAAABgjOQAAAAAwRnIAAAAAYIzkAAAAAMAYyQEAAACAMZIDAAAAAGMkBwAAAADGSA4AAAAAjJEcAAAAABgjOQAAAAAwRnIAAAAAYIzkAAAAAMAYyQEAAACAMZIDAAAAAGMkBwAAAADGSA4AAAAAjJEcAAAAABgjOQAAAAAwRnIAAAAAYIzkAAAAAMAYyQEAAACAMZIDAAAAAGMkBwAAAADGSA4AAAAAjJEcAAAAABgjOQAAAAAwRnIAAAAAYIzkAAAAAMAYyQEAAACAMZIDAAAAAGMkBwAAAADGSA4AAAAAjJEcAAAAABgjOQAAAAAwRnIAAAAAYIzkAAAAAMAYyQEAAACAMZIDAAAAAGMkBwAAAADGSA4AAAAAjJEcAAAAABgjOQAAAAAwRnIAAAAAYIzkAAAAAMAYyQEAAACAMZIDAAAAAN3Q/wdmfKhEVppnjQAAAABJRU5ErkJggg==" vertex="1" parent="WIyWlLk6GJQsqaUBKTNV-1">
          <mxGeometry x="-108" y="192.32" width="1043" height="419" as="geometry" />
        </mxCell>
        <mxCell id="X5NU6dxAT5ho14sx0l3U-13" value="Create Conference" style="text;html=1;strokeColor=none;fillColor=none;align=center;verticalAlign=middle;whiteSpace=wrap;rounded=0;" vertex="1" parent="WIyWlLk6GJQsqaUBKTNV-1">
          <mxGeometry x="110" y="168.48" width="60" height="30" as="geometry" />
        </mxCell>
      </root>
    </mxGraphModel>
  </diagram>
</mxfile>
